<svg width="181" height="50" viewBox="0 0 181 50" fill="none" xmlns="http://www.w3.org/2000/svg">
<path d="M10.368 38H0.64V37.808L3.232 37.648V22.064L0.64 21.936V21.744L6.112 21.616L7.04 24.656C7.936 22.544 9.664 21.296 11.424 21.296C12.192 21.296 12.832 21.424 13.408 21.648L13.792 26.928L13.536 26.992L10.72 21.68C9.504 21.872 7.84 23.024 7.136 25.296V37.648L10.368 37.808V38ZM25.5535 35.088C25.0735 36.912 24.2735 38.32 22.0335 38.32C19.0575 38.32 16.7855 36.72 16.7855 32.4V21.936H14.4175V21.616H16.7855V19.696L20.4975 15.6H20.6895V21.616H25.2015V21.936H20.6895V34.32C20.6895 36.656 21.2975 37.808 22.8015 37.808C24.0495 37.808 24.8495 36.656 25.2655 34.992L25.5535 35.088ZM37.616 35.088C37.136 36.912 36.336 38.32 34.096 38.32C31.12 38.32 28.848 36.72 28.848 32.4V21.936H26.48V21.616H28.848V19.696L32.56 15.6H32.752V21.616H37.264V21.936H32.752V34.32C32.752 36.656 33.36 37.808 34.864 37.808C36.112 37.808 36.912 36.656 37.328 34.992L37.616 35.088ZM49.2945 38V37.808L51.8865 37.648V25.424C51.8865 22.96 50.9905 21.904 49.4225 21.904C48.0785 21.904 46.0305 23.152 45.1985 25.296V37.648L47.7905 37.808V38H38.7025V37.808L41.2945 37.648V22.064L38.7025 21.936V21.744L44.1745 21.616L45.1025 24.688C46.1265 22.672 48.2065 21.296 50.5745 21.296C54.0625 21.296 55.7905 23.312 55.7905 27.12V37.648L58.3825 37.808V38H49.2945ZM65.8853 35.984C65.8853 37.36 64.7653 38.256 63.5813 38.256C62.3973 38.256 61.2773 37.36 61.2773 35.984C61.2773 34.672 62.3653 33.712 63.5813 33.712C64.7653 33.712 65.8853 34.672 65.8853 35.984ZM77.719 16.24L83.223 31.664L88.887 16.24H96.471V16.432L93.591 16.592L94.935 37.648L97.655 37.808V38H87.191V37.808L90.167 37.648L88.887 17.104L81.143 38.32H80.951L73.335 16.784L72.151 35.216L76.471 37.808V38H69.175V37.808L71.831 35.248L73.015 16.592L70.135 16.432V16.24H77.719ZM116.225 38H110.849L109.825 35.568C108.449 37.232 106.721 38.32 104.385 38.32C101.857 38.32 100.225 36.784 100.225 34.352C100.225 31.856 102.049 29.744 106.465 28.752L109.729 28.016V25.136C109.729 22.736 108.705 21.712 107.361 21.712C105.313 21.712 103.201 23.536 101.601 27.12L101.345 27.056L102.273 21.296H102.465L104.225 22.736C105.441 21.744 106.497 21.296 108.033 21.296C111.553 21.296 113.633 23.056 113.633 26.736V37.648L116.225 37.808V38ZM106.593 37.2C107.649 37.2 108.673 36.464 109.729 35.28V28.336L108.513 28.624C105.377 29.36 104.225 30.736 104.225 33.36C104.225 35.984 104.961 37.2 106.593 37.2ZM127.826 38V37.808L130.418 37.648V25.424C130.418 22.96 129.522 21.904 127.954 21.904C126.61 21.904 124.562 23.152 123.73 25.296V37.648L126.322 37.808V38H117.234V37.808L119.826 37.648V22.064L117.234 21.936V21.744L122.706 21.616L123.634 24.688C124.658 22.672 126.738 21.296 129.106 21.296C132.594 21.296 134.322 23.312 134.322 27.12V37.648L136.914 37.808V38H127.826ZM155.361 40.56C155.361 43.6 151.809 46.32 146.241 46.32C141.409 46.32 138.753 44.848 138.753 42.416C138.753 40.496 140.737 38.8 143.937 38.096L139.521 37.744C140.833 35.472 141.793 34.064 143.201 32.208C140.897 31.344 139.201 29.552 139.201 27.056C139.201 23.504 142.593 21.296 146.273 21.296C148.481 21.296 150.625 22.096 151.937 23.536L155.873 21.296H156.193V23.696H152.097C152.865 24.592 153.345 25.744 153.345 27.056C153.345 30.576 149.953 32.72 146.273 32.72C145.312 32.72 144.385 32.56 143.521 32.304C142.945 32.976 142.305 33.904 141.857 34.64L147.009 35.088C152.353 35.568 155.361 37.52 155.361 40.56ZM146.273 32.432C148.641 32.432 149.537 31.344 149.537 27.056C149.537 22.672 148.577 21.584 146.273 21.584C143.969 21.584 143.009 22.672 143.009 27.056C143.009 31.344 143.969 32.432 146.273 32.432ZM141.505 42.224C141.505 44.656 143.457 46 146.369 46C150.625 46 152.417 44.4 152.417 42.32C152.417 40.144 150.465 38.64 146.241 38.288L144.225 38.128C142.273 39.408 141.505 40.624 141.505 42.224ZM173.78 29.808C173.78 35.12 169.972 38.32 165.716 38.32C161.396 38.32 157.62 35.12 157.62 29.808C157.62 24.56 161.396 21.296 165.716 21.296C169.972 21.296 173.78 24.56 173.78 29.808ZM169.46 29.808C169.46 23.024 168.5 21.584 165.716 21.584C162.9 21.584 161.94 23.024 161.94 29.808C161.94 36.592 162.9 38.032 165.716 38.032C168.5 38.032 169.46 36.592 169.46 29.808Z" fill="black"/>
</svg>
